<?xml version="1.0" encoding="iso-8859-1"?>
<!-- Generator: Adobe Illustrator 19.0.0, SVG Export Plug-In . SVG Version: 6.00 Build 0)  -->
<svg version="1.1" id="Layer_1" xmlns="http://www.w3.org/2000/svg" xmlns:xlink="http://www.w3.org/1999/xlink" x="0px" y="0px"
	 viewBox="0 0 512 512" style="enable-background:new 0 0 512 512;" xml:space="preserve">
<g>
	<path style="fill:#FBD971;" d="M512,256c0,141.383-114.617,256-256,256S0,397.383,0,256S114.617,0,256,0S512,114.617,512,256"/>
	<g>
		<path style="fill:#F29C1F;" d="M185.379,185.379c-4.873,0-8.828-3.955-8.828-8.828c0-14.601-11.882-26.483-26.483-26.483
			c-14.601,0-26.483,11.882-26.483,26.483c0,4.873-3.955,8.828-8.828,8.828c-4.873,0-8.828-3.955-8.828-8.828
			c0-24.338,19.8-44.138,44.138-44.138s44.138,19.8,44.138,44.138C194.207,181.425,190.252,185.379,185.379,185.379"/>
		<path style="fill:#F29C1F;" d="M397.241,185.379c-4.873,0-8.828-3.955-8.828-8.828c0-14.601-11.882-26.483-26.483-26.483
			s-26.483,11.882-26.483,26.483c0,4.873-3.955,8.828-8.828,8.828s-8.828-3.955-8.828-8.828c0-24.338,19.8-44.138,44.138-44.138
			s44.138,19.8,44.138,44.138C406.069,181.425,402.114,185.379,397.241,185.379"/>
	</g>
	<path style="fill:#C03A2B;" d="M135.512,282.483c-9.64,0-15.219,10.805-9.807,18.785c28.398,41.922,75.697,69.491,130.26,69.491
		c54.607,0,101.932-27.604,130.331-69.57c5.376-7.954-0.168-18.706-9.772-18.706H135.512z"/>
</g>
<g>
</g>
<g>
</g>
<g>
</g>
<g>
</g>
<g>
</g>
<g>
</g>
<g>
</g>
<g>
</g>
<g>
</g>
<g>
</g>
<g>
</g>
<g>
</g>
<g>
</g>
<g>
</g>
<g>
</g>
</svg>
