<?xml version="1.0" encoding="iso-8859-1"?>
<!-- Generator: Adobe Illustrator 19.0.0, SVG Export Plug-In . SVG Version: 6.00 Build 0)  -->
<svg version="1.1" id="Layer_1" xmlns="http://www.w3.org/2000/svg" xmlns:xlink="http://www.w3.org/1999/xlink" x="0px" y="0px"
	 viewBox="0 0 512 512" style="enable-background:new 0 0 512 512;" xml:space="preserve">
<g>
	<path style="fill:#FBD971;" d="M512,256c0,141.383-114.617,256-256,256S0,397.383,0,256S114.617,0,256,0S512,114.617,512,256"/>
	<g>
		<path style="fill:#ECF0F1;" d="M282.483,194.207h-52.966c-4.882,0-8.828-3.955-8.828-8.828c0-4.873,3.946-8.828,8.828-8.828
			h52.966c4.882,0,8.828,3.955,8.828,8.828C291.31,190.252,287.364,194.207,282.483,194.207"/>
		<path style="fill:#ECF0F1;" d="M441.379,194.207h-17.655c-4.882,0-8.828-3.955-8.828-8.828c0-4.873,3.946-8.828,8.828-8.828
			h17.655c4.882,0,8.828,3.955,8.828,8.828C450.207,190.252,446.261,194.207,441.379,194.207"/>
		<path style="fill:#ECF0F1;" d="M88.276,194.207H70.621c-4.882,0-8.828-3.955-8.828-8.828c0-4.873,3.946-8.828,8.828-8.828h17.655
			c4.882,0,8.828,3.955,8.828,8.828C97.103,190.252,93.158,194.207,88.276,194.207"/>
	</g>
	<g>
		<path style="fill:#B0D3F0;" d="M229.517,185.379c0,39-31.62,70.621-70.621,70.621s-70.621-31.62-70.621-70.621
			s31.62-70.621,70.621-70.621S229.517,146.379,229.517,185.379"/>
		<path style="fill:#B0D3F0;" d="M423.724,185.379c0,39-31.62,70.621-70.621,70.621s-70.621-31.62-70.621-70.621
			s31.62-70.621,70.621-70.621S423.724,146.379,423.724,185.379"/>
	</g>
	<path style="fill:#AF8066;" d="M379.582,220.694c-1.156,0-2.339-0.23-3.478-0.724l-61.793-26.483
		c-3.24-1.386-5.35-4.582-5.35-8.113c0-3.531,2.119-6.727,5.358-8.113l61.978-26.483c4.493-1.924,9.675,0.168,11.591,4.643
		c1.916,4.484-0.168,9.675-4.643,11.591l-43.017,18.379l42.84,18.361c4.476,1.916,6.55,7.106,4.626,11.591
		C386.264,218.681,383.007,220.694,379.582,220.694"/>
	<path style="fill:#F29C1F;" d="M255.97,406.069c-55.031,0-108.562-28.548-139.688-74.496c-2.737-4.034-1.686-9.525,2.348-12.262
		c4.034-2.737,9.525-1.677,12.262,2.357c27.895,41.172,75.82,66.745,125.078,66.745c49.329,0,97.28-25.574,125.131-66.745
		c2.737-4.043,8.218-5.085,12.262-2.357c4.043,2.728,5.094,8.218,2.366,12.262C364.629,377.521,311.072,406.069,255.97,406.069"/>
	<path style="fill:#AF8066;" d="M185.379,185.379c0,14.627-11.855,26.483-26.483,26.483c-14.627,0-26.483-11.855-26.483-26.483
		c0-14.627,11.855-26.483,26.483-26.483C173.524,158.897,185.379,170.752,185.379,185.379"/>
</g>
<g>
</g>
<g>
</g>
<g>
</g>
<g>
</g>
<g>
</g>
<g>
</g>
<g>
</g>
<g>
</g>
<g>
</g>
<g>
</g>
<g>
</g>
<g>
</g>
<g>
</g>
<g>
</g>
<g>
</g>
</svg>
