<?xml version="1.0" encoding="iso-8859-1"?>
<!-- Generator: Adobe Illustrator 19.0.0, SVG Export Plug-In . SVG Version: 6.00 Build 0)  -->
<svg version="1.1" id="Layer_1" xmlns="http://www.w3.org/2000/svg" xmlns:xlink="http://www.w3.org/1999/xlink" x="0px" y="0px"
	 viewBox="0 0 512 512" style="enable-background:new 0 0 512 512;" xml:space="preserve">
<g>
	<path style="fill:#FBD971;" d="M512,256c0,141.383-114.617,256-256,256S0,397.383,0,256S114.617,0,256,0S512,114.617,512,256
		L512,256z"/>
	<g>
		<path style="fill:#ECF0F1;" d="M282.483,194.207h-52.966c-4.873,0-8.828-3.946-8.828-8.828c0-4.882,3.955-8.828,8.828-8.828
			h52.966c4.873,0,8.828,3.946,8.828,8.828C291.31,190.261,287.356,194.207,282.483,194.207"/>
		<path style="fill:#ECF0F1;" d="M441.379,194.207h-17.655c-4.873,0-8.828-3.946-8.828-8.828c0-4.882,3.955-8.828,8.828-8.828
			h17.655c4.873,0,8.828,3.946,8.828,8.828C450.207,190.261,446.252,194.207,441.379,194.207"/>
		<path style="fill:#ECF0F1;" d="M88.276,194.207H70.621c-4.873,0-8.828-3.946-8.828-8.828c0-4.882,3.955-8.828,8.828-8.828h17.655
			c4.873,0,8.828,3.946,8.828,8.828C97.103,190.261,93.149,194.207,88.276,194.207"/>
	</g>
	<path style="fill:#805333;" d="M360.275,353.103c-2.851,0-5.455-1.598-6.894-4.061c-21.31-36.264-52.215-47.395-52.215-47.395
		c-20.868-6.215-36.899,8.298-42.99,15.051c-1.439,1.589-3.893,1.589-5.332,0c-6.091-6.753-22.122-21.266-42.99-15.051
		c0,0-29.899,11.132-51.235,47.404c-1.448,2.454-4.043,4.052-6.894,4.052h-19.65c-7.406,0-11.123,8.96-5.879,14.204l11.034,11.043
		c12.509,12.509,29.475,19.535,47.166,19.535c19.553,0,38.038-8.66,50.794-23.49c6.471-7.512,13.895-13.753,20.321-13.038
		c6.426-0.715,13.85,5.526,20.321,13.038c12.756,14.83,31.232,23.49,50.794,23.49h0.98c17.69,0,34.657-7.027,47.166-19.535
		l11.034-11.043c5.244-5.244,1.536-14.204-5.879-14.204H360.275z"/>
	<g>
		<path style="fill:#B0D3F0;" d="M229.517,185.379c0,39-31.62,70.621-70.621,70.621s-70.621-31.62-70.621-70.621
			s31.62-70.621,70.621-70.621S229.517,146.379,229.517,185.379"/>
		<path style="fill:#B0D3F0;" d="M423.724,185.379c0,39-31.62,70.621-70.621,70.621s-70.621-31.62-70.621-70.621
			s31.62-70.621,70.621-70.621S423.724,146.379,423.724,185.379"/>
	</g>
	<g>
		<path style="fill:#AF8066;" d="M379.396,220.69c-1.156,0-2.339-0.221-3.478-0.715l-61.793-26.483
			c-3.24-1.386-5.35-4.59-5.35-8.121c0-3.522,2.119-6.727,5.358-8.113l61.978-26.483c4.493-1.924,9.675,0.168,11.591,4.652
			c1.916,4.484-0.168,9.666-4.643,11.591l-43.017,18.37l42.84,18.361c4.476,1.924,6.55,7.115,4.626,11.591
			C386.079,218.686,382.822,220.69,379.396,220.69"/>
		<path style="fill:#AF8066;" d="M185.379,185.379c0,14.627-11.855,26.483-26.483,26.483c-14.627,0-26.483-11.855-26.483-26.483
			c0-14.627,11.855-26.483,26.483-26.483C173.524,158.897,185.379,170.752,185.379,185.379"/>
	</g>
</g>
<g>
</g>
<g>
</g>
<g>
</g>
<g>
</g>
<g>
</g>
<g>
</g>
<g>
</g>
<g>
</g>
<g>
</g>
<g>
</g>
<g>
</g>
<g>
</g>
<g>
</g>
<g>
</g>
<g>
</g>
</svg>
