<?xml version="1.0" encoding="iso-8859-1"?>
<!-- Generator: Adobe Illustrator 19.0.0, SVG Export Plug-In . SVG Version: 6.00 Build 0)  -->
<svg version="1.1" id="Layer_1" xmlns="http://www.w3.org/2000/svg" xmlns:xlink="http://www.w3.org/1999/xlink" x="0px" y="0px"
	 viewBox="0 0 512 512" style="enable-background:new 0 0 512 512;" xml:space="preserve">
<g>
	<path style="fill:#FBD971;" d="M512,256c0,141.383-114.617,256-256,256S0,397.383,0,256S114.617,0,256,0S512,114.617,512,256"/>
	<path style="fill:#C03A2B;" d="M376.542,308.966H135.531c-9.64,0-15.219,10.805-9.807,18.785
		c20.392,30.102,50.564,52.736,86.14,63.144v-37.791c0-4.873,3.955-8.828,8.828-8.828h70.621c4.873,0,8.828,3.955,8.828,8.828
		v37.782c35.602-10.417,65.783-33.077,86.175-63.214C391.69,319.717,386.146,308.966,376.542,308.966"/>
	<g>
		<path style="fill:#F29C1F;" d="M185.379,185.379c-4.873,0-8.828-3.955-8.828-8.828c0-14.601-11.882-26.483-26.483-26.483
			c-14.601,0-26.483,11.882-26.483,26.483c0,4.873-3.955,8.828-8.828,8.828c-4.873,0-8.828-3.955-8.828-8.828
			c0-24.338,19.8-44.138,44.138-44.138s44.138,19.8,44.138,44.138C194.207,181.425,190.252,185.379,185.379,185.379"/>
		<path style="fill:#F29C1F;" d="M397.241,185.379c-4.873,0-8.828-3.955-8.828-8.828c0-14.601-11.882-26.483-26.483-26.483
			s-26.483,11.882-26.483,26.483c0,4.873-3.955,8.828-8.828,8.828s-8.828-3.955-8.828-8.828c0-24.338,19.8-44.138,44.138-44.138
			s44.138,19.8,44.138,44.138C406.069,181.425,402.114,185.379,397.241,185.379"/>
		<path style="fill:#F29C1F;" d="M181.384,127.725c-2.26,0-4.52-0.865-6.241-2.586c-8.43-8.43-20.418-12.014-32.124-9.622
			c-4.776,0.989-9.446-2.092-10.425-6.868c-0.98-4.776,2.092-9.446,6.868-10.425c17.523-3.61,35.522,1.792,48.163,14.433
			c3.452,3.452,3.452,9.031,0,12.482C185.904,126.859,183.644,127.725,181.384,127.725"/>
		<path style="fill:#F29C1F;" d="M330.719,127.711c-2.26,0-4.52-0.865-6.241-2.586c-3.452-3.452-3.452-9.031,0-12.482
			c12.606-12.615,30.579-18.017,48.04-14.46c4.776,0.971,7.857,5.632,6.894,10.408c-0.98,4.776-5.641,7.883-10.417,6.894
			c-11.644-2.366-23.631,1.236-32.035,9.64C335.239,126.846,332.979,127.711,330.719,127.711"/>
	</g>
	<path style="fill:#FB7B76;" d="M300.138,414.897v-61.793c0-4.873-3.955-8.828-8.828-8.828H220.69c-4.873,0-8.828,3.955-8.828,8.828
		v61.793c0,24.373,19.765,44.138,44.138,44.138S300.138,439.27,300.138,414.897"/>
</g>
<g>
</g>
<g>
</g>
<g>
</g>
<g>
</g>
<g>
</g>
<g>
</g>
<g>
</g>
<g>
</g>
<g>
</g>
<g>
</g>
<g>
</g>
<g>
</g>
<g>
</g>
<g>
</g>
<g>
</g>
</svg>
