<?xml version="1.0" encoding="iso-8859-1"?>
<!-- Generator: Adobe Illustrator 19.0.0, SVG Export Plug-In . SVG Version: 6.00 Build 0)  -->
<svg version="1.1" id="Layer_1" xmlns="http://www.w3.org/2000/svg" xmlns:xlink="http://www.w3.org/1999/xlink" x="0px" y="0px"
	 viewBox="0 0 512 512" style="enable-background:new 0 0 512 512;" xml:space="preserve">
<g>
	<path style="fill:#FBD971;" d="M512,256c0,141.383-114.617,256-256,256S0,397.383,0,256S114.617,0,256,0S512,114.617,512,256"/>
	<path style="fill:#FB7B76;" d="M300.138,414.897v-61.793c0-4.873-3.955-8.828-8.828-8.828H220.69c-4.873,0-8.828,3.955-8.828,8.828
		v61.793c0,24.373,19.765,44.138,44.138,44.138S300.138,439.27,300.138,414.897"/>
	<path style="fill:#AF8066;" d="M194.022,176.552c0,19.5-15.81,35.31-35.31,35.31c-19.5,0-35.31-15.81-35.31-35.31
		s15.81-35.31,35.31-35.31C178.212,141.241,194.022,157.052,194.022,176.552"/>
	<path style="fill:#F29C1F;" d="M388.224,220.69c-1.483,0-2.993-0.371-4.37-1.165l-61.793-35.31
		c-2.754-1.571-4.449-4.502-4.449-7.662c0-3.178,1.704-6.1,4.458-7.671l61.97-35.31c4.237-2.428,9.622-0.945,12.05,3.302
		c2.41,4.237,0.927,9.631-3.301,12.041l-48.534,27.648l48.358,27.639c4.237,2.419,5.711,7.812,3.284,12.041
		C394.271,219.092,391.296,220.69,388.224,220.69"/>
	<path style="fill:#C03A2B;" d="M376.542,308.966H135.531c-9.64,0-15.219,10.805-9.807,18.785
		c20.392,30.102,50.564,52.736,86.14,63.144v-37.791c0-4.873,3.955-8.828,8.828-8.828h70.621c4.873,0,8.828,3.955,8.828,8.828
		v37.782c35.602-10.417,65.783-33.077,86.175-63.214C391.69,319.717,386.146,308.966,376.542,308.966"/>
</g>
<g>
</g>
<g>
</g>
<g>
</g>
<g>
</g>
<g>
</g>
<g>
</g>
<g>
</g>
<g>
</g>
<g>
</g>
<g>
</g>
<g>
</g>
<g>
</g>
<g>
</g>
<g>
</g>
<g>
</g>
</svg>
