<?xml version="1.0" encoding="iso-8859-1"?>
<!-- Generator: Adobe Illustrator 19.0.0, SVG Export Plug-In . SVG Version: 6.00 Build 0)  -->
<svg version="1.1" id="Layer_1" xmlns="http://www.w3.org/2000/svg" xmlns:xlink="http://www.w3.org/1999/xlink" x="0px" y="0px"
	 viewBox="0 0 512 512" style="enable-background:new 0 0 512 512;" xml:space="preserve">
<g>
	<path style="fill:#FBD971;" d="M481.418,213.134c-12.526,35.575-37.305,55.543-91.851,61.29
		c-70.497,7.415-102.956-45.93-107.599-77.003c-4.634-31.073-25.971-29.678-25.971-29.678s-21.327-1.395-25.971,29.678
		c-4.634,31.073-37.094,84.418-107.591,77.003c-54.625-5.756-79.395-25.777-91.904-61.449c-2.648,13.948-4.087,28.31-4.087,43.026
		c0,18.785,2.304,37.014,6.559,54.493l11.132-19.182l18.741,32.274c10.311,19.094,10.346,35.125,0,47.06
		c-1.156,1.324-2.419,2.454-3.716,3.487c40.148,66.737,113.249,111.386,196.802,111.386c126.755,0,229.517-102.762,229.517-229.517
		C485.478,241.347,484.039,227.028,481.418,213.134"/>
	<path style="fill:#C03A2B;" d="M361.89,406.07c-20.71-16.578-77.047-26.483-105.887-26.483c-28.84,0-85.266,9.905-105.975,26.483
		h0.044c21.372-36.908,60.213-61.793,105.931-61.793s84.551,24.885,105.931,61.793H361.89z"/>
	<path style="fill:#2C3E50;" d="M256,132.337L256,132.337c-9.446,0-18.847-1.501-27.833-4.405C91.56,83.714,0,126.016,0,126.016
		v29.678c18.547,0.468,22.263,22.263,22.263,22.263c8.81,57.971,29.678,89.044,100.175,96.468
		c70.488,7.415,102.956-45.93,107.591-77.003S256,167.735,256,167.735s21.336-1.386,25.971,29.687
		c4.634,31.073,37.102,84.418,107.591,77.003c70.497-7.424,91.366-38.497,100.175-96.468c0,0,3.716-21.795,22.263-22.263v-29.678
		c0,0-91.56-42.302-228.167,1.916C274.847,130.836,265.446,132.337,256,132.337"/>
	<path style="fill:#FBD971;" d="M228.168,127.929c8.986,2.904,18.388,4.405,27.833,4.405c9.445,0,18.847-1.501,27.833-4.405
		c59.039-19.112,109.639-22.042,148.092-19.235C389.828,58.456,326.64,26.482,255.958,26.482s-133.87,31.974-175.978,82.22
		C118.45,105.878,169.085,108.808,228.168,127.929"/>
	<path style="fill:#546777;" d="M70.621,185.381c-2.26,0-4.52-0.865-6.241-2.586c-3.452-3.452-3.452-9.031,0-12.482l26.483-26.483
		c3.452-3.452,9.031-3.452,12.482,0s3.452,9.031,0,12.482l-26.483,26.483C75.14,184.516,72.881,185.381,70.621,185.381"/>
	<path style="fill:#4482C3;" d="M62.873,370.641L62.873,370.641c-10.346,11.926-27.127,11.926-37.473,0
		c-10.346-11.926-10.311-30.588,0-47.051l18.741-32.274l18.732,32.274C73.183,342.675,73.219,358.715,62.873,370.641"/>
</g>
<g>
</g>
<g>
</g>
<g>
</g>
<g>
</g>
<g>
</g>
<g>
</g>
<g>
</g>
<g>
</g>
<g>
</g>
<g>
</g>
<g>
</g>
<g>
</g>
<g>
</g>
<g>
</g>
<g>
</g>
</svg>
